<?xml version="1.0" standalone="no"?>
<!DOCTYPE svg PUBLIC "-//W3C//DTD SVG 20010904//EN"
 "http://www.w3.org/TR/2001/REC-SVG-20010904/DTD/svg10.dtd">
<svg version="1.0" xmlns="http://www.w3.org/2000/svg"
 width="576.000000pt" height="576.000000pt" viewBox="0 0 576.000000 576.000000"
 preserveAspectRatio="xMidYMid meet">
<metadata>
Created by potrace 1.14, written by Peter Selinger 2001-2017
</metadata>
<g transform="translate(0.000000,576.000000) scale(0.100000,-0.100000)"
fill="#000000" stroke="none">
<path d="M3142 5650 c-6 -11 -30 -29 -52 -40 -22 -11 -58 -44 -81 -75 -41 -54
-47 -56 -81 -28 -13 12 -34 13 -102 8 -73 -6 -93 -12 -126 -36 -47 -34 -54
-35 -87 -9 -14 11 -41 20 -59 20 -18 0 -56 -9 -84 -20 -28 -11 -61 -20 -73
-20 -12 0 -75 -13 -140 -30 -65 -16 -124 -27 -131 -24 -7 3 -18 16 -24 29 -6
13 -23 32 -37 41 -22 14 -32 15 -64 5 -21 -6 -50 -11 -64 -11 -13 0 -48 -16
-76 -35 l-50 -35 -16 30 c-24 47 -55 48 -144 6 -42 -20 -84 -36 -92 -36 -21 0
-43 -26 -67 -81 -10 -25 -43 -78 -72 -118 -41 -56 -54 -83 -58 -119 -3 -29
-13 -57 -27 -72 -62 -70 -70 -109 -29 -137 23 -15 31 -15 73 -4 75 22 91 24
91 13 0 -6 -29 -58 -64 -116 -36 -59 -78 -141 -94 -184 -29 -75 -71 -236 -88
-337 -9 -47 -11 -50 -40 -50 -47 -1 -78 -27 -120 -102 -35 -63 -38 -74 -38
-148 0 -120 30 -171 114 -195 24 -7 42 -5 68 6 41 17 45 14 62 -41 17 -55 59
-137 112 -220 25 -38 65 -106 88 -150 24 -44 57 -99 74 -123 17 -24 41 -57 54
-74 12 -18 19 -35 15 -38 -5 -4 -69 -15 -143 -24 -74 -9 -182 -23 -240 -31
-58 -8 -132 -17 -165 -20 -33 -3 -100 -13 -150 -21 -249 -39 -570 -83 -654
-89 -111 -8 -134 -15 -157 -50 -17 -26 -16 -30 34 -183 72 -221 97 -321 131
-542 35 -222 45 -378 46 -705 0 -400 -36 -955 -66 -991 -6 -7 -36 -15 -67 -19
-31 -3 -78 -8 -104 -11 l-48 -6 0 -59 0 -60 148 6 c81 3 176 10 212 16 43 7
317 9 800 7 652 -4 762 -7 974 -26 140 -13 396 -26 620 -32 210 -5 480 -15
601 -21 397 -22 1951 -3 2203 26 l52 6 0 61 0 60 -57 -6 c-99 -11 -310 -19
-335 -13 -26 7 -94 91 -120 150 -27 59 -25 157 12 577 22 258 99 825 145 1080
15 80 29 164 32 188 3 23 10 45 14 48 5 3 9 17 9 31 0 76 157 655 216 795 30
71 30 90 1 123 -19 22 -37 29 -117 41 -215 32 -506 11 -733 -53 -48 -14 -94
-22 -101 -20 -11 4 -7 29 16 119 27 106 29 123 26 280 -3 156 -2 168 15 168
34 0 97 41 123 80 22 34 26 47 20 82 -13 83 -36 136 -77 172 -32 30 -47 36
-83 36 -24 0 -51 3 -60 6 -9 4 -27 41 -42 91 -14 47 -44 133 -65 191 -52 140
-52 140 14 131 65 -8 117 8 134 40 17 35 -3 77 -72 154 -30 34 -72 94 -93 134
-97 188 -144 261 -194 307 -51 47 -54 48 -101 42 -43 -6 -52 -4 -86 24 -37 28
-44 30 -128 30 -89 0 -89 0 -123 35 -38 39 -76 45 -120 20 -14 -8 -38 -14 -55
-14 -16 0 -41 6 -55 14 -14 8 -50 14 -81 15 -105 0 -171 38 -220 126 l-31 54
-57 0 c-45 0 -59 -4 -69 -20z m-1428 -787 c-8 -21 -24 -58 -36 -82 -40 -88
-33 -156 18 -180 54 -24 100 -1 136 66 47 89 91 168 101 181 17 21 108 15 164
-12 40 -20 51 -31 56 -56 10 -46 49 -80 93 -80 30 0 44 7 75 40 31 32 45 40
74 40 29 0 44 8 76 40 22 22 46 40 54 40 7 0 24 -18 36 -40 28 -50 73 -68 129
-51 21 6 43 18 50 26 19 23 35 18 73 -20 22 -22 45 -35 61 -35 19 0 27 -6 32
-25 3 -14 3 -32 0 -41 -9 -23 10 -87 34 -114 14 -16 31 -23 60 -24 50 -1 73
21 98 93 17 50 22 55 60 67 24 6 49 17 56 23 8 7 29 9 52 5 26 -4 49 0 69 10
48 25 86 20 141 -19 55 -39 96 -44 133 -16 18 14 23 27 23 57 0 21 5 46 11 54
14 18 62 50 75 50 5 0 32 -18 60 -41 65 -51 176 -109 209 -109 14 0 41 9 60
21 26 16 37 18 47 10 29 -24 72 -29 106 -13 31 15 33 15 51 -7 11 -13 19 -29
19 -37 0 -8 5 -14 10 -14 6 0 10 -6 10 -12 0 -7 7 -26 16 -43 41 -79 125 -356
153 -505 12 -63 27 -135 34 -160 7 -27 12 -122 12 -235 0 -173 -2 -196 -23
-253 -31 -87 -80 -159 -117 -172 -16 -6 -84 -23 -150 -37 -118 -25 -129 -25
-760 -33 -710 -9 -999 -20 -1371 -51 -138 -12 -262 -19 -275 -16 -13 4 -49 30
-80 59 -55 52 -83 92 -149 213 -18 33 -38 69 -44 80 -6 11 -21 34 -32 50 -52
73 -97 174 -111 245 -26 137 -37 332 -25 428 20 161 91 359 172 479 17 24 30
47 30 51 2 22 129 141 152 142 4 0 0 -17 -8 -37z m2933 -785 c-3 -8 -6 -5 -6
6 -1 11 2 17 5 13 3 -3 4 -12 1 -19z m-3447 -144 c0 -55 -11 -69 -30 -35 -13
25 -13 57 1 82 16 32 29 12 29 -47z m1752 -1710 c3 -3 0 -17 -7 -32 -7 -15
-16 -60 -19 -100 -7 -84 -22 -118 -66 -156 -46 -38 -99 -50 -145 -30 l-37 15
7 67 c9 89 24 122 73 160 69 55 174 96 194 76z m-318 -369 c43 -22 63 -25 146
-25 83 0 106 4 154 26 56 25 116 30 123 8 2 -6 -10 -24 -26 -42 -36 -37 -56
-98 -47 -145 4 -19 29 -65 56 -102 72 -98 87 -171 51 -250 -30 -64 -60 -86
-131 -92 -54 -5 -65 -3 -93 18 -25 18 -48 24 -102 27 -65 4 -72 2 -94 -22 -50
-53 -142 -26 -227 67 -69 75 -104 151 -104 224 0 33 -5 64 -11 70 -18 18 8
107 48 158 80 106 159 130 257 80z"/>
<path d="M3426 4269 c-23 -27 -26 -39 -26 -113 0 -46 5 -98 11 -117 22 -65 80
-87 129 -49 24 18 25 23 25 139 0 113 -1 121 -24 145 -35 37 -81 35 -115 -5z"/>
<path d="M2637 4207 c-32 -26 -47 -91 -47 -209 0 -78 18 -144 43 -160 7 -4 28
-8 48 -8 62 0 72 21 81 173 8 146 2 186 -37 211 -33 22 -55 20 -88 -7z"/>
<path d="M3120 3939 c-33 -13 -40 -26 -40 -74 0 -26 13 -64 35 -109 l35 -68
-30 -35 c-34 -39 -37 -54 -13 -93 18 -31 38 -40 95 -40 84 0 148 55 148 127 0
50 -115 260 -155 285 -34 20 -40 21 -75 7z"/>
<path d="M3161 3445 c-37 -8 -74 -24 -88 -36 -45 -44 -20 -117 47 -134 37 -9
189 20 219 43 19 14 27 30 29 58 6 81 -55 101 -207 69z"/>
<path d="M2840 2169 c-100 -55 -130 -98 -130 -188 0 -46 2 -51 25 -57 14 -3
36 -3 50 0 37 9 92 62 104 99 13 44 24 177 14 177 -4 0 -33 -14 -63 -31z"/>
<path d="M3000 1853 c-8 -3 -39 -16 -69 -30 -50 -23 -64 -25 -160 -21 -83 4
-115 9 -148 26 -25 13 -61 22 -86 22 -37 0 -51 -6 -90 -40 -25 -22 -55 -56
-67 -76 -20 -32 -21 -42 -15 -142 6 -92 11 -115 37 -164 39 -73 122 -152 177
-169 40 -12 43 -11 72 17 28 27 36 29 109 29 66 0 83 -4 109 -22 44 -33 119
-32 160 2 62 53 68 164 13 238 -71 96 -87 130 -86 182 1 52 33 129 56 138 18
6 6 15 -12 10z"/>
</g>
</svg>
